<svg xmlns="http://www.w3.org/2000/svg" width="256" height="256" viewBox="0 0 256 256">
<!-- SVG created with Arrow, by QuiverAI (https://quiver.ai) -->
  <path d="m249.1 180.9c0.46-1.79-0.96-1.91-2.08-1.7-36.87 7.09-78.41 10.55-132.2 12.38l-1.41 4.11c53.31-1.8 94.58-5 130.9-10.97-5.44 20.67-18.78 43.39-28.87 48.18-3.81 1.86-5.6-0.89-5.91-3.74-0.7-6.57 3.13-19.16 3.75-22.78 0.46-2.61-3.85-3.68-4.55-0.52-0.1 0.46-0.25 1.02-0.4 1.63-2.32-3.2-6.33-4.65-11.29-3.63-6.42 1.38-11.11 7.78-13.24 14.61-4.62 8.54-11.7 14.42-19.81 14.42-7.86 0-10.03-5.94-9.08-12.1 1.12-7.22 6.69-12.95 12.82-12.95 3.93 0 4.38 2.92 3.04 5.5-1.38 2.85 2.97 4.1 4.01 0.83 1.85-5.4-1.09-11.21-9.85-11.21-5.62 0-10.1 4.09-12.77 8.42-3.16 2.81-6.12 3.94-10.66 3.83-0.62-7.24-4.3-12.45-9.97-12.45-3.19 0-5.03 1.85-5.57 4.2-0.61-2.25-2.02-3.24-5.31-1.12-4.37 2.75-6.44 7.5-7.69 13.33-3.32 6.89-6.71 13.83-12.14 13.62-5.03-0.2-6.67-5.08-6.72-13.4 13.6-21.25 29.76-58.25 29.76-78.48 0-6.81-2.13-10.08-5.58-10.08-14.13 0-27.2 46.86-28.35 87.12-6.3 9.17-14.09 14.94-23.69 14.73-5.5-0.11-7.83-3.35-8.44-7.62 10.69 0.1 19.71-5.07 19.71-13.99 0-4.91-3.58-7.66-8.07-7.66-8.81 0-15.49 9.54-16.4 16.88-4.76-1.43-6.2-6.63-6.1-14.13 0.1-3.06-3.91-3.52-4.81-0.16-3.19 10.19-8.1 20.16-14.99 26.32-5.13-14.16-9.36-27.3-15.01-39.52 21.18 2.36 45.01 3.26 73.23 3.26l0.83-3.97c-28.26 0-53.78-1.18-77.56-3.73-1.79-0.21-2.89 1.34-1.99 2.98 7.44 13.85 12.77 28.65 17.21 43.87 0.61 2.15 2.25 1.74 3.5 1.33 6.06-2.15 13.1-14.38 15.42-22.57 1.64 4.89 4.37 8.72 9.97 9.95 0.5 7.24 4.63 12.93 13.39 12.93 9.87 0 17.78-5.59 23.88-13.34 0.61 8.05 3.83 13.54 10.92 13.34 6.2-0.21 9.72-4.68 12.71-9.14 1.54 5.7 5.47 9.55 11.63 9.24 9.06-0.46 14.28-9.24 15.82-17.88 3.45-0.1 6.28-0.91 8.91-2.35-2.23 9.97 0.93 20.13 13.89 20.13 8.85 0 15.22-5.29 19.66-10.77 1 6.35 4.32 10.92 10.18 10.66 6.42-0.3 10.25-4.06 12.28-7.72 0.71 5.59 3.23 8.24 8.09 7.72 11.09-1.22 28.73-26.65 35.03-55.84zm-180 26.48c2.99-0.71 5.31 1.03 5.31 3.89 0 6.17-8.12 10.24-16.77 10.14 0.6-6.26 6.13-12.82 11.46-14.03zm48.79-72.47c1.64 0.82 2.45 8.06-1.01 22.01-5.23 21.15-14.48 42.49-23.13 54.81 1.14-23.83 13.04-76.82 24.14-76.82zm14.72 71.96c3.55 0 5.48 4.17 5.68 8.34-4.34-0.72-7.7-3.48-7.7-6.44 0-1.13 0.6-1.9 2.02-1.9zm-6.69 26.02c-6.22 0.72-8.74-4.97-8.74-10.66 0-7.23 3.65-12.82 8.38-15.15-0.5 5.69 4.14 11.28 11.9 12.2-1.64 6.73-5.77 12.99-11.54 13.61zm66.97 0c-5.13 0-6.24-6.66-5.13-12.1 1.53-7.33 6.86-13.71 13.38-13.41 3.45 0.11 5.39 1.95 5.99 4.3-1.34 8-6.09 21.21-14.24 21.21z" fill="#1B6196"/>
  <path d="m49.01 172.9h40.9l0.75-3.56h-36.49c28.94-31.22 45.82-64.27 62.22-110.4v66.54c1.32-0.52 2.7-0.52 3.66-0.32v-94.77c14.02 40.67 19.74 89.42 6.93 147.8 22.11-12.93 47.93-17.2 79.92-4.88-4.92-55.35-31.24-103.3-84.08-147.2l-0.1-0.1-0.2-0.16c-1.01-0.82-2.02-1.63-3.07-2.45l0.6-0.82c1.06 0.72 2.06 1.43 3.07 2.15 49.75 36.9 76.87 79.63 87.16 150.7 0.3 1.94-1.44 2.35-2.65 1.73-29.55-12.63-55.57-9.57-83.6 7.69-1.92 1.23-3.67 0.11-2.92-2.14 17.98-49.16 17.68-92.43-2.8-162.4v-1.12c-0.3-1.74-2.04-2.25-3.2-1.33-0.6 0.51 1.33 0 1.33 0.82-0.3 0.41 0 0 0 0.1h-0.2v24.04c-13.72 49.14-32.21 86.14-68.31 127.4-1.21 1.43-0.6 2.65 1.08 2.65z" fill="#1B6196"/>
</svg>